<svg width="28" height="18" viewBox="0 0 28 18" fill="none" xmlns="http://www.w3.org/2000/svg">
<path fill-rule="evenodd" clip-rule="evenodd" d="M9.91577 9.53674e-06H10.33H26.33H27.33V1.00001V17V18H26.33H10.33H9.91577L9.62288 17.7071L1.62288 9.70712L0.915771 9.00001L1.62288 8.2929L9.62288 0.292903L9.91577 9.53674e-06ZM10.7442 2.00001L3.7442 9.00001L10.7442 16H25.33V2.00001H10.7442ZM14.33 4.58579L15.0371 5.29289L17.33 7.58579L19.6229 5.2929L20.33 4.5858L21.7442 6.00001L21.0371 6.70712L18.7442 9L21.0371 11.2929L21.7442 12L20.33 13.4142L19.6229 12.7071L17.33 10.4142L15.0371 12.7071L14.33 13.4142L12.9158 12L13.6229 11.2929L15.9158 9L13.6229 6.70711L12.9158 6L14.33 4.58579Z" fill="white"/>
</svg>
